# xmcd
#
# Track frame offsets:
#	150
#	17280
#	38052
#	63297
#	82450
#	101065
#	127247
#	149705
#	174760
#	193530
#	215037
#	231934
#
# Disc length: 3419 seconds
#
# Revision: 1
# Processed by: cddbd v1.4PL0 Copyright (c) Steve Scherf et al.
# Submitted via: CDmax 1.9
#
DISCID=af0d590c
DTITLE=Michael Allen - Deep Inside
DYEAR=1996
DGENRE=Blues
TTITLE0=Coquette
TTITLE1=Deep In Side
TTITLE2=Start All Over Again
TTITLE3=Breakdown
TTITLE4=Come On Over Girl
TTITLE5=Love Pains
TTITLE6=On This Island
TTITLE7=Stuck In The Middle
TTITLE8=Can I See You
TTITLE9=It's Better To Be In Love
TTITLE10=Black Widow
TTITLE11=Smoke From The Mountain
EXTD=
EXTT0=
EXTT1=
EXTT2=
EXTT3=
EXTT4=
EXTT5=
EXTT6=
EXTT7=
EXTT8=
EXTT9=
EXTT10=
EXTT11=
PLAYORDER=
